HIERARCHY
ROOT Root
{
  OFFSET 0.0 0.0 0.0
  CHANNELS 6 Xposition Yposition Zposition Zrotation Yrotation Xrotation
  JOINT Hips
  {
    OFFSET 0.0 100.0 0.0
    CHANNELS 6 Xposition Yposition Zposition Zrotation Yrotation Xrotation
    JOINT Spine1
    {
      OFFSET -0.013727 5.003763 -0.053727
      CHANNELS 3 Zrotation Yrotation Xrotation
      JOINT Spine2
      {
        OFFSET -0.0 7.125301 -0.029825
        CHANNELS 3 Zrotation Yrotation Xrotation
        JOINT Chest
        {
          OFFSET -1e-06 7.550063 -0.815971
          CHANNELS 3 Zrotation Yrotation Xrotation
          JOINT Neck1
          {
            OFFSET -0.181677 26.311295 -0.553348
            CHANNELS 3 Zrotation Yrotation Xrotation
            JOINT Neck2
            {
              OFFSET -3e-06 7.709397 2.302585
              CHANNELS 3 Zrotation Yrotation Xrotation
              JOINT Head
              {
                OFFSET -5e-06 6.128916 1.953709
                CHANNELS 3 Zrotation Yrotation Xrotation
                JOINT HeadEnd
                {
                  OFFSET 0.003598 16.065403 -1.835379
                  CHANNELS 3 Zrotation Yrotation Xrotation
                }
                JOINT Jaw
                {
                  OFFSET 0.002637 0.475592 3.094941
                  CHANNELS 3 Zrotation Yrotation Xrotation
                }
                JOINT LeftEye
                {
                  OFFSET 3.206381 5.380205 7.586883
                  CHANNELS 3 Zrotation Yrotation Xrotation
                }
                JOINT RightEye
                {
                  OFFSET -3.22244 5.361869 7.558234
                  CHANNELS 3 Zrotation Yrotation Xrotation
                }
              }
            }
          }
          JOINT LeftShoulder
          {
            OFFSET 1.621652 23.237164 5.113413
            CHANNELS 3 Zrotation Yrotation Xrotation
            JOINT LeftArm
            {
              OFFSET 14.919846 2e-06 -5.502326
              CHANNELS 3 Zrotation Yrotation Xrotation
              JOINT LeftForeArm
              {
                OFFSET 28.739307 0.0 -0.002588
                CHANNELS 3 Zrotation Yrotation Xrotation
                JOINT LeftHand
                {
                  OFFSET 27.093981 -1e-06 0.002609
                  CHANNELS 3 Zrotation Yrotation Xrotation
                  JOINT LeftHandThumb1
                  {
                    OFFSET 2.276482 -1.392045 3.191413
                    CHANNELS 3 Zrotation Yrotation Xrotation
                    JOINT LeftHandThumb2
                    {
                      OFFSET 4.012836 -1.828127 1.641654
                      CHANNELS 3 Zrotation Yrotation Xrotation
                      JOINT LeftHandThumb3
                      {
                        OFFSET 2.798515 0.0 -3e-06
                        CHANNELS 3 Zrotation Yrotation Xrotation
                        JOINT LeftHandThumbEnd
                        {
                          OFFSET 3.180793 -4e-06 4e-06
                          CHANNELS 3 Zrotation Yrotation Xrotation
                        }
                      }
                    }
                  }
                  JOINT LeftHandIndex1
                  {
                    OFFSET 3.247555 -0.531998 2.296169
                    CHANNELS 3 Zrotation Yrotation Xrotation
                    JOINT LeftHandIndex2
                    {
                      OFFSET 6.364578 0.01206 0.1786
                      CHANNELS 3 Zrotation Yrotation Xrotation
                      JOINT LeftHandIndex3
                      {
                        OFFSET 3.662364 0.0 0.0
                        CHANNELS 3 Zrotation Yrotation Xrotation
                        JOINT LeftHandIndex4
                        {
                          OFFSET 2.329242 4e-06 4e-06
                          CHANNELS 3 Zrotation Yrotation Xrotation
                          JOINT LeftHandIndexEnd
                          {
                            OFFSET 2.759615 -0.180537 -0.113024
                            CHANNELS 3 Zrotation Yrotation Xrotation
                          }
                        }
                      }
                    }
                  }
                  JOINT LeftHandMiddle1
                  {
                    OFFSET 3.163495 0.240981 1.000332
                    CHANNELS 3 Zrotation Yrotation Xrotation
                    JOINT LeftHandMiddle2
                    {
                      OFFSET 6.19078 -0.259278 -1.002548
                      CHANNELS 3 Zrotation Yrotation Xrotation
                      JOINT LeftHandMiddle3
                      {
                        OFFSET 4.35652 -4e-06 -1e-06
                        CHANNELS 3 Zrotation Yrotation Xrotation
                        JOINT LeftHandMiddle4
                        {
                          OFFSET 2.996877 -8e-06 0.0
                          CHANNELS 3 Zrotation Yrotation Xrotation
                          JOINT LeftHandMiddleEnd
                          {
                            OFFSET 2.304287 -0.294569 -0.031741
                            CHANNELS 3 Zrotation Yrotation Xrotation
                          }
                        }
                      }
                    }
                  }
                  JOINT LeftHandRing1
                  {
                    OFFSET 2.882643 -0.053652 -0.322543
                    CHANNELS 3 Zrotation Yrotation Xrotation
                    JOINT LeftHandRing2
                    {
                      OFFSET 5.854541 -0.486202 -1.373841
                      CHANNELS 3 Zrotation Yrotation Xrotation
                      JOINT LeftHandRing3
                      {
                        OFFSET 4.350578 0.0 3e-06
                        CHANNELS 3 Zrotation Yrotation Xrotation
                        JOINT LeftHandRing4
                        {
                          OFFSET 2.651321 7e-06 2e-06
                          CHANNELS 3 Zrotation Yrotation Xrotation
                          JOINT LeftHandRingEnd
                          {
                            OFFSET 1.936105 0.077687 -7.1e-05
                            CHANNELS 3 Zrotation Yrotation Xrotation
                          }
                        }
                      }
                    }
                  }
                  JOINT LeftHandPinky1
                  {
                    OFFSET 2.8655 -0.310005 -1.600378
                    CHANNELS 3 Zrotation Yrotation Xrotation
                    JOINT LeftHandPinky2
                    {
                      OFFSET 5.087849 -1.331141 -1.77123
                      CHANNELS 3 Zrotation Yrotation Xrotation
                      JOINT LeftHandPinky3
                      {
                        OFFSET 3.070974 4e-06 0.0
                        CHANNELS 3 Zrotation Yrotation Xrotation
                        JOINT LeftHandPinky4
                        {
                          OFFSET 1.549672 0.0 1e-06
                          CHANNELS 3 Zrotation Yrotation Xrotation
                          JOINT LeftHandPinkyEnd
                          {
                            OFFSET 1.944893 -0.157802 0.057219
                            CHANNELS 3 Zrotation Yrotation Xrotation
                          }
                        }
                      }
                    }
                  }
                }
              }
            }
          }
          JOINT RightShoulder
          {
            OFFSET -1.380118 23.180309 5.214158
            CHANNELS 3 Zrotation Yrotation Xrotation
            JOINT RightArm
            {
              OFFSET -15.037196 1.2e-05 -5.545604
              CHANNELS 3 Zrotation Yrotation Xrotation
              JOINT RightForeArm
              {
                OFFSET -28.736639 2e-06 -0.002597
                CHANNELS 3 Zrotation Yrotation Xrotation
                JOINT RightHand
                {
                  OFFSET -27.133619 -0.0 0.002613
                  CHANNELS 3 Zrotation Yrotation Xrotation
                  JOINT RightHandThumb1
                  {
                    OFFSET -2.274032 -1.383988 3.163127
                    CHANNELS 3 Zrotation Yrotation Xrotation
                    JOINT RightHandThumb2
                    {
                      OFFSET -4.011429 -1.827466 1.640914
                      CHANNELS 3 Zrotation Yrotation Xrotation
                      JOINT RightHandThumb3
                      {
                        OFFSET -2.794935 -4e-06 -3e-06
                        CHANNELS 3 Zrotation Yrotation Xrotation
                        JOINT RightHandThumbEnd
                        {
                          OFFSET -3.183852 4e-06 1e-06
                          CHANNELS 3 Zrotation Yrotation Xrotation
                        }
                      }
                    }
                  }
                  JOINT RightHandIndex1
                  {
                    OFFSET -3.253266 -0.520057 2.282866
                    CHANNELS 3 Zrotation Yrotation Xrotation
                    JOINT RightHandIndex2
                    {
                      OFFSET -6.341917 0.012471 0.178266
                      CHANNELS 3 Zrotation Yrotation Xrotation
                      JOINT RightHandIndex3
                      {
                        OFFSET -3.654871 -8e-06 -0.0
                        CHANNELS 3 Zrotation Yrotation Xrotation
                        JOINT RightHandIndex4
                        {
                          OFFSET -2.327586 0.0 1e-06
                          CHANNELS 3 Zrotation Yrotation Xrotation
                          JOINT RightHandIndexEnd
                          {
                            OFFSET -2.76179 -0.180656 -0.113078
                            CHANNELS 3 Zrotation Yrotation Xrotation
                          }
                        }
                      }
                    }
                  }
                  JOINT RightHandMiddle1
                  {
                    OFFSET -3.168106 0.246593 1.00103
                    CHANNELS 3 Zrotation Yrotation Xrotation
                    JOINT RightHandMiddle2
                    {
                      OFFSET -6.180828 -0.258836 -1.000895
                      CHANNELS 3 Zrotation Yrotation Xrotation
                      JOINT RightHandMiddle3
                      {
                        OFFSET -4.348901 0.0 -0.0
                        CHANNELS 3 Zrotation Yrotation Xrotation
                        JOINT RightHandMiddle4
                        {
                          OFFSET -3.00024 -4e-06 -2e-06
                          CHANNELS 3 Zrotation Yrotation Xrotation
                          JOINT RightHandMiddleEnd
                          {
                            OFFSET -2.30252 -0.29437 -0.031706
                            CHANNELS 3 Zrotation Yrotation Xrotation
                          }
                        }
                      }
                    }
                  }
                  JOINT RightHandRing1
                  {
                    OFFSET -2.88569 -0.067952 -0.308858
                    CHANNELS 3 Zrotation Yrotation Xrotation
                    JOINT RightHandRing2
                    {
                      OFFSET -5.854198 -0.48613 -1.373731
                      CHANNELS 3 Zrotation Yrotation Xrotation
                      JOINT RightHandRing3
                      {
                        OFFSET -4.33881 -4e-06 -0.0
                        CHANNELS 3 Zrotation Yrotation Xrotation
                        JOINT RightHandRing4
                        {
                          OFFSET -2.654903 -4e-06 4e-06
                          CHANNELS 3 Zrotation Yrotation Xrotation
                          JOINT RightHandRingEnd
                          {
                            OFFSET -1.933568 0.077527 -5.2e-05
                            CHANNELS 3 Zrotation Yrotation Xrotation
                          }
                        }
                      }
                    }
                  }
                  JOINT RightHandPinky1
                  {
                    OFFSET -2.866425 -0.342796 -1.584145
                    CHANNELS 3 Zrotation Yrotation Xrotation
                    JOINT RightHandPinky2
                    {
                      OFFSET -5.091371 -1.332055 -1.772385
                      CHANNELS 3 Zrotation Yrotation Xrotation
                      JOINT RightHandPinky3
                      {
                        OFFSET -3.062664 -4e-06 1e-06
                        CHANNELS 3 Zrotation Yrotation Xrotation
                        JOINT RightHandPinky4
                        {
                          OFFSET -1.546529 4e-06 -2e-06
                          CHANNELS 3 Zrotation Yrotation Xrotation
                          JOINT RightHandPinkyEnd
                          {
                            OFFSET -1.945119 -0.157718 0.057211
                            CHANNELS 3 Zrotation Yrotation Xrotation
                          }
                        }
                      }
                    }
                  }
                }
              }
            }
          }
        }
      }
    }
    JOINT LeftLeg
    {
      OFFSET 10.043214 -8.434526 2.595655
      CHANNELS 3 Zrotation Yrotation Xrotation
      JOINT LeftShin
      {
        OFFSET -1e-06 -43.221752 -0.802913
        CHANNELS 3 Zrotation Yrotation Xrotation
        JOINT LeftFoot
        {
          OFFSET 1e-06 -42.155094 -3.481523
          CHANNELS 3 Zrotation Yrotation Xrotation
          JOINT LeftToeBase
          {
            OFFSET 0.0 -5.059472 13.231529
            CHANNELS 3 Zrotation Yrotation Xrotation
            JOINT LeftToeEnd
            {
              OFFSET -0.009607 -1.647619 6.513017
              CHANNELS 3 Zrotation Yrotation Xrotation
            }
          }
        }
      }
    }
    JOINT RightLeg
    {
      OFFSET -10.047278 -8.29526 2.620317
      CHANNELS 3 Zrotation Yrotation Xrotation
      JOINT RightShin
      {
        OFFSET 1e-06 -43.362206 -0.805556
        CHANNELS 3 Zrotation Yrotation Xrotation
        JOINT RightFoot
        {
          OFFSET 2e-06 -42.117393 -3.478398
          CHANNELS 3 Zrotation Yrotation Xrotation
          JOINT RightToeBase
          {
            OFFSET -0.0 -5.079609 13.284196
            CHANNELS 3 Zrotation Yrotation Xrotation
            JOINT RightToeEnd
            {
              OFFSET 0.009532 -1.634378 6.460591
              CHANNELS 3 Zrotation Yrotation Xrotation
            }
          }
        }
      }
    }
  }
}
MOTION
Frames: 4
Frame Time: 0.03333333333333333
0.0 0.0 0.0 0.0 -0.0 0.0 -8.267269 98.493004 154.453232 -6.008108 1.483087 -2.335699 2.683403 0.115445 -0.477424 0.372689 -1.32421 -4.991907 2.591907 -3.380672 12.75858 1.308442 1.946342 9.319705 -1.806515 -3.401769 -3.411181 0.59914 -4.906247 -1.937329 7.7e-05 -2.2e-05 5e-06 0.010368 0.010568 -0.069698 0.819702 -3.674727 -10.627542 -0.796194 3.700918 -10.616508 -25.433197 -7.091477 14.99561 -51.512333 -0.292648 2.487408 0.236377 -36.639122 0.062241 11.737603 6.81941 -7.52636 -5.882107 9.861284 0.70259 -10.936872 -0.360575 7.156206 -0.0 8.774826 -1e-06 -16.102144 17.964464 5.859628 -1.844032 2.498503 -2.507278 -10.163601 4.678945 4.621109 -20.976023 -3e-06 2e-06 -21.226286 2.451698 -3.594 1e-06 -6e-06 -0.0 -1.362682 2.240798 -0.746324 -21.334913 0.58491 3.008323 -13.821213 -1e-06 2e-06 -23.887171 -0.249077 -0.839483 -59.756931 2.210022 -1.10622 -0.294024 1.679688 0.833257 -14.21821 0.093215 1.30058 -34.212051 -0.287563 0.967171 -20.033213 0.964538 1.212843 0.0 -1e-06 -1e-06 -3.440389 0.788233 0.501657 -15.928185 -3.167309 2.999708 -6.338827 -1e-06 1e-06 -18.123449 3.648185 -4.90567 -4e-06 -0.0 -2e-06 20.554115 8.970157 14.709757 55.596416 -1.213385 16.07745 -0.169221 29.152987 0.202399 0.13164 1.081329 -9.312771 2.243541 -5.255037 -3.180158 14.282887 -0.826594 6.952501 -1e-06 -12.690605 -1e-06 16.222698 -17.766163 2.592179 1.665666 -1.955921 -2.878298 4.727797 -4.170587 4.993924 11.020525 3e-06 -2e-06 12.10905 -3.735716 -2.866784 -1e-06 -0.0 -0.0 1.291985 -1.928549 -1.498089 14.800125 0.567469 3.865606 14.242569 -1.341737 -6.660658 19.631968 0.143926 -0.648245 49.718437 -0.585739 -6.483387 0.353029 -1.511151 -0.031939 20.222786 3.68431 2.31663 18.78727 4e-06 -2e-06 10.751625 -0.479868 1.397907 -1e-06 -1e-06 -0.0 3.273806 0.305947 -0.580112 21.486809 11.830377 2.266135 8.162924 1e-06 0.0 18.399076 -3.798986 -4.940576 4e-06 1e-06 -1e-06 11.254577 4.509582 2.222145 -0.114002 -0.559196 46.601501 -4.880572 7.791739 11.401597 2.053054 -1.764894 -15.502634 -0.0 -0.0 -0.0 7.368031 -4.440672 -12.67437 0.071874 -0.27408 13.213419 -2.142617 -5.404562 1.549247 -1.441158 0.88492 -1.388312 0.0 0.0 -1e-06 
0.0 0.0 0.0 0.0 -0.0 0.0 -8.926672 98.875252 157.217163 -6.024272 2.669726 -2.915673 2.97569 0.255881 -0.294014 0.331061 -1.041882 -4.874485 2.444891 -3.229603 12.807702 1.533341 1.812419 9.720015 -1.852621 -3.607535 -3.444441 0.60238 -5.247983 -1.704891 7.7e-05 -2.2e-05 6e-06 0.009235 0.014666 -0.069234 0.802533 -3.675248 -10.623831 -0.782289 3.708045 -10.60515 -25.894028 -6.464055 15.074327 -51.028961 0.730348 4.609009 0.137745 -35.174118 0.124973 10.694063 7.074874 -6.827703 -5.882107 9.861286 0.70259 -10.936873 -0.360574 7.156207 1e-06 8.774825 1e-06 -16.285568 17.944246 5.816393 -1.844032 2.498504 -2.507278 -10.163601 4.678945 4.621109 -20.976027 -3e-06 1e-06 -21.226288 2.451698 -3.594001 -0.0 -6e-06 0.0 -1.362682 2.2408 -0.746324 -21.334915 0.58491 3.008322 -13.821215 -2e-06 1e-06 -23.887175 -0.249079 -0.839484 -59.967094 2.328482 -1.166671 -0.294025 1.679687 0.833256 -14.218211 0.093215 1.30058 -34.212051 -0.287563 0.967168 -20.033218 0.964537 1.212843 0.0 -1e-06 -1e-06 -3.440388 0.788234 0.501656 -15.928185 -3.167309 2.999706 -6.338826 -1e-06 2e-06 -18.123444 3.648182 -4.905671 -4e-06 0.0 -2e-06 20.641348 9.244333 14.693871 54.029224 -0.635603 16.404873 -0.222512 30.132919 0.10899 -0.305222 1.411507 -9.81725 2.243541 -5.255035 -3.180156 14.282885 -0.826595 6.952501 -1e-06 -12.690601 1e-06 16.255442 -17.712976 2.578138 1.665666 -1.955921 -2.878298 4.727797 -4.170587 4.993922 11.02052 2e-06 -2e-06 12.109046 -3.735716 -2.866783 -1e-06 -0.0 0.0 1.291985 -1.92855 -1.498091 14.800122 0.567466 3.865607 14.242566 -1.341737 -6.660656 19.631958 0.143925 -0.648245 49.776875 -0.587742 -6.368231 0.353029 -1.51115 -0.031941 20.222784 3.684307 2.316631 18.787266 2e-06 0.0 10.751624 -0.47987 1.397905 -2e-06 -1e-06 0.0 3.273805 0.305947 -0.580111 21.486801 11.830368 2.266131 8.162926 2e-06 -0.0 18.399076 -3.798986 -4.940575 4e-06 0.0 -3e-06 11.701791 5.41397 -2.491633 -0.148506 -0.453367 54.89801 -4.692938 9.054232 12.979439 1.875837 -1.892963 -7.037603 -0.0 -0.0 1e-06 7.616878 -4.872112 -9.284785 -0.010662 -0.280436 11.382695 -2.426931 -6.069719 0.427445 -1.441484 0.902178 -1.525462 0.0 0.0 -1e-06 
0.0 0.0 0.0 0.0 -0.0 0.0 -9.42007 99.189552 160.029037 -5.556098 3.345647 -3.387992 3.100075 0.430948 -0.200607 0.254624 -0.6684 -4.754335 2.091903 -2.886781 12.883343 1.619087 1.819313 10.338754 -1.920551 -3.789834 -3.428636 0.641211 -5.467427 -1.528008 7.7e-05 -2.3e-05 6e-06 0.00813 -0.0092 -0.055713 0.784969 -3.703227 -10.618494 -0.768597 3.689156 -10.592396 -26.469172 -5.582027 15.10489 -50.55143 1.876408 5.504617 -0.073632 -33.956268 0.197379 10.531655 6.852804 -6.740616 -5.882111 9.861295 0.702591 -10.93688 -0.360575 7.156209 0.0 8.774833 -1e-06 -16.383039 17.986 5.79196 -1.844035 2.498507 -2.50728 -10.163607 4.678949 4.621111 -20.97604 -3e-06 1e-06 -21.226307 2.451698 -3.594004 -0.0 -6e-06 -0.0 -1.362683 2.2408 -0.746324 -21.334932 0.58491 3.008324 -13.821225 -3e-06 1e-06 -23.887192 -0.24908 -0.839485 -60.040314 2.374785 -1.296179 -0.294024 1.679689 0.833257 -14.218221 0.093215 1.30058 -34.212078 -0.287565 0.967167 -20.033232 0.964536 1.212843 -0.0 -0.0 -1e-06 -3.440392 0.788234 0.501655 -15.928201 -3.167312 2.999708 -6.338832 -1e-06 -0.0 -18.123466 3.648186 -4.905677 -4e-06 0.0 -2e-06 20.478134 9.661022 14.709757 52.46587 0.222627 16.301447 -0.095149 30.599476 0.076455 -0.932495 1.482085 -9.290506 2.243543 -5.255038 -3.180157 14.282898 -0.826594 6.952502 -3e-06 -12.690609 -0.0 16.363503 -17.681585 2.499756 1.665668 -1.955922 -2.878299 4.727801 -4.170588 4.993924 11.020535 3e-06 -2e-06 12.10906 -3.735717 -2.866786 -1e-06 -0.0 -0.0 1.291986 -1.928549 -1.49809 14.800136 0.567468 3.865607 14.242579 -1.341737 -6.66066 19.631975 0.143925 -0.648247 49.77935 -0.612117 -6.323045 0.353029 -1.511151 -0.031941 20.222803 3.684312 2.31663 18.787285 6e-06 -3e-06 10.751636 -0.479867 1.397907 -2e-06 -2e-06 0.0 3.273809 0.305947 -0.580112 21.486828 11.830382 2.266133 8.16293 2e-06 -1e-06 18.399096 -3.798982 -4.94058 4e-06 -0.0 -2e-06 11.038413 6.302183 -6.434774 -0.179308 -0.273158 59.521507 -6.058949 8.28299 10.80618 1.81902 -1.902445 -5.404393 -0.0 -0.0 2e-06 7.304757 -5.002907 -6.095622 -0.046614 -0.298096 9.830241 -2.391123 -6.538733 -0.831182 -1.438704 0.905744 -1.49222 0.0 -0.0 -1e-06 
0.0 0.0 0.0 0.0 -0.0 0.0 -9.785538 99.386581 162.845474 -4.953061 3.747577 -3.719442 3.173459 0.591881 -0.093565 0.197313 -0.286412 -4.649156 1.69127 -2.501497 12.886861 1.521061 1.929277 10.961649 -1.98532 -3.898004 -3.414516 0.717858 -5.613239 -1.24691 7.7e-05 -2.3e-05 6e-06 0.004704 -0.020715 -0.047654 0.768959 -3.716406 -10.611746 -0.760865 3.67926 -10.583163 -26.886778 -4.664429 15.169094 -50.481396 3.087281 5.352468 -0.154267 -32.85252 0.18089 10.995999 6.615014 -7.203987 -5.88211 9.861286 0.70259 -10.936876 -0.360575 7.156208 1e-06 8.774826 -3e-06 -16.376064 18.028112 5.831664 -1.844033 2.498505 -2.507279 -10.163606 4.678945 4.62111 -20.976038 -4e-06 2e-06 -21.226299 2.451696 -3.594 -1e-06 -6e-06 -0.0 -1.36268 2.240798 -0.746324 -21.334929 0.584909 3.008324 -13.821221 -3e-06 1e-06 -23.887188 -0.24908 -0.839483 -60.106739 2.372484 -1.429977 -0.294024 1.679687 0.833256 -14.218216 0.093215 1.300581 -34.212067 -0.287565 0.96717 -20.033226 0.964536 1.212845 -0.0 0.0 -0.0 -3.44039 0.788233 0.501655 -15.928194 -3.167311 2.999708 -6.338829 -1e-06 1e-06 -18.123455 3.648182 -4.905671 -4e-06 0.0 -2e-06 19.988325 10.230535 14.768747 51.195309 1.112669 15.60591 0.116734 30.987724 0.125637 -1.58748 1.292349 -8.463651 2.243542 -5.255038 -3.180157 14.282892 -0.826593 6.952501 -3e-06 -12.690605 0.0 16.441267 -17.657682 2.432655 1.665667 -1.955922 -2.878298 4.727798 -4.170588 4.993924 11.020527 4e-06 -1e-06 12.109052 -3.735715 -2.866787 -1e-06 -0.0 -0.0 1.291986 -1.928549 -1.498089 14.800129 0.567469 3.865605 14.242571 -1.341734 -6.660658 19.631969 0.143929 -0.648243 49.763702 -0.583315 -6.322787 0.353028 -1.51115 -0.031941 20.22279 3.684312 2.316627 18.787271 6e-06 -0.0 10.751629 -0.479867 1.397907 -1e-06 1e-06 0.0 3.273808 0.305946 -0.580112 21.486818 11.830379 2.266133 8.162926 2e-06 -1e-06 18.399082 -3.798982 -4.940575 5e-06 -0.0 -2e-06 9.749331 7.006127 -10.038919 -0.163384 -0.083841 60.680397 -7.217196 7.764442 8.08812 1.79151 -1.886531 -5.246964 -0.0 -2e-06 2e-06 6.805915 -4.89746 -3.174093 -0.017704 -0.307698 8.54744 -2.260597 -6.993267 -2.215724 -1.436698 0.898616 -1.33423 0.0 -0.0 -1e-06 
